<svg id="Capa_1" enable-background="new 0 0 337.646 337.646" height="512" viewBox="0 0 337.646 337.646" width="512" xmlns="http://www.w3.org/2000/svg"><g><g><g><path d="m332.602 263.576-131.16-227.16c-10.398-18.013-33.43-24.187-51.443-13.789-5.727 3.306-10.483 8.062-13.789 13.789l-131.16 227.16c-10.398 18.016-4.223 41.05 13.792 51.448 5.723 3.303 12.215 5.043 18.824 5.044h262.32c20.801-.002 37.662-16.867 37.66-37.668-.001-6.608-1.74-13.1-5.044-18.824zm-12.124 30.66c-4.191 7.357-12.025 11.881-20.492 11.832h-262.32c-13.069-.002-23.662-10.599-23.66-23.668.001-4.151 1.093-8.229 3.168-11.824l131.16-227.172c6.532-11.317 21.001-15.197 32.319-8.665 3.599 2.077 6.588 5.066 8.665 8.665l131.16 227.172c4.276 7.307 4.276 16.353 0 23.66z"/><path d="m168.826 102.736c-13.432.015-24.317 10.9-24.332 24.332v71.004c.001 13.438 10.896 24.331 24.334 24.33 13.436-.001 24.329-10.893 24.33-24.33v-71.004c-.015-13.432-10.9-24.316-24.332-24.332zm10.332 95.336c0 5.706-4.626 10.332-10.332 10.332s-10.332-4.626-10.332-10.332v-71.004c0-5.706 4.626-10.332 10.332-10.332s10.332 4.626 10.332 10.332z"/><path d="m168.826 232.816c-13.44-.002-24.338 10.892-24.34 24.332s10.892 24.338 24.332 24.34 24.338-10.892 24.34-24.332c0-.003 0-.005 0-.008-.015-13.432-10.9-24.316-24.332-24.332zm0 34.668c-5.708.002-10.338-4.624-10.34-10.332s4.624-10.338 10.332-10.34 10.338 4.624 10.34 10.332v.004c-.002 5.707-4.625 10.335-10.332 10.344z"/></g></g></g></svg>